/* XPM */
static char * red_sad_face_24x24_xpm[] = {
"24 24 413 2",
"  	c None",
". 	c #CE6E65",
"+ 	c #BD5445",
"@ 	c #C35B49",
"# 	c #CF7567",
"$ 	c #CD5E4E",
"% 	c #D65C4E",
"& 	c #D94B34",
"* 	c #DC5231",
"= 	c #E25D3B",
"- 	c #E5603F",
"; 	c #DF5F37",
"> 	c #DB613A",
", 	c #DC7258",
"' 	c #CD704D",
") 	c #C55B4B",
"! 	c #DD5643",
"~ 	c #E3553E",
"{ 	c #EA6049",
"] 	c #EA634A",
"^ 	c #EB6548",
"/ 	c #EA6845",
"( 	c #EA6C45",
"_ 	c #EB714C",
": 	c #EB784E",
"< 	c #ED7D4D",
"[ 	c #F2AE84",
"} 	c #DC9F7C",
"| 	c #BC6747",
"1 	c #C64D3A",
"2 	c #E25D41",
"3 	c #E65D45",
"4 	c #E55C43",
"5 	c #E85941",
"6 	c #E95A3F",
"7 	c #E55B3E",
"8 	c #E65E40",
"9 	c #E76142",
"0 	c #E76640",
"a 	c #E46C43",
"b 	c #E8724F",
"c 	c #EB926A",
"d 	c #FAE3B9",
"e 	c #EBBB96",
"f 	c #C9755C",
"g 	c #C66448",
"h 	c #E15E3A",
"i 	c #E85940",
"j 	c #E75741",
"k 	c #E6543A",
"l 	c #E95037",
"m 	c #E85035",
"n 	c #E55135",
"o 	c #E55137",
"p 	c #E85239",
"q 	c #E85938",
"r 	c #E3603D",
"s 	c #E76642",
"t 	c #E76C45",
"u 	c #E07F4B",
"v 	c #F19A6D",
"w 	c #EC7E53",
"x 	c #D06854",
"y 	c #CE6D59",
"z 	c #DF5138",
"A 	c #E25C40",
"B 	c #E65342",
"C 	c #E44F3D",
"D 	c #E44B39",
"E 	c #E74837",
"F 	c #E54534",
"G 	c #E34731",
"H 	c #E54732",
"I 	c #E74833",
"J 	c #E54E36",
"K 	c #E75336",
"L 	c #E95A3A",
"M 	c #E6643E",
"N 	c #E86D40",
"O 	c #E47546",
"P 	c #EC7C4E",
"Q 	c #E86A43",
"R 	c #C95A48",
"S 	c #D74A3A",
"T 	c #E95042",
"U 	c #E8513E",
"V 	c #E64D3D",
"W 	c #E5473A",
"X 	c #E54539",
"Y 	c #C73A2F",
"Z 	c #E53E37",
"` 	c #E33F2E",
" .	c #E2422B",
"..	c #E5422A",
"+.	c #E74433",
"@.	c #DD4936",
"#.	c #D44A31",
"$.	c #E55A3A",
"%.	c #EB6042",
"&.	c #E96A44",
"*.	c #E7744A",
"=.	c #EF7048",
"-.	c #D5563D",
";.	c #D46757",
">.	c #D83227",
",.	c #E74E41",
"'.	c #E74D38",
").	c #E6473A",
"!.	c #E84337",
"~.	c #BB3831",
"{.	c #2E0504",
"].	c #CB392F",
"^.	c #E33A2F",
"/.	c #E43D2B",
"(.	c #E33D2F",
"_.	c #EB4231",
":.	c #912F25",
"<.	c #42160C",
"[.	c #DF553D",
"}.	c #E8563C",
"|.	c #E86243",
"1.	c #E76B45",
"2.	c #EE6F4B",
"3.	c #DD4931",
"4.	c #D26450",
"5.	c #D1433D",
"6.	c #E42B29",
"7.	c #E54639",
"8.	c #E74B3B",
"9.	c #E64334",
"0.	c #E94235",
"a.	c #842422",
"b.	c #170202",
"c.	c #972A21",
"d.	c #E73833",
"e.	c #EB352E",
"f.	c #E6392E",
"g.	c #E34030",
"h.	c #691F19",
"i.	c #100203",
"j.	c #C84A36",
"k.	c #E5543D",
"l.	c #E75D3D",
"m.	c #E86742",
"n.	c #E86444",
"o.	c #E7432F",
"p.	c #D5483B",
"q.	c #D3302B",
"r.	c #E72A2C",
"s.	c #E3352E",
"t.	c #E7463B",
"u.	c #E44132",
"v.	c #E74033",
"w.	c #6D201E",
"x.	c #120500",
"y.	c #872721",
"z.	c #E63A32",
"A.	c #E33728",
"B.	c #E23A27",
"C.	c #E53C33",
"D.	c #641813",
"E.	c #180402",
"F.	c #BE422F",
"G.	c #E54F3A",
"H.	c #E85739",
"I.	c #EA6142",
"J.	c #E55038",
"K.	c #E83F2D",
"L.	c #D93B2B",
"M.	c #CC201A",
"N.	c #E52B2C",
"O.	c #E42B28",
"P.	c #E13730",
"Q.	c #E43F33",
"R.	c #E93E31",
"S.	c #7C211F",
"T.	c #140200",
"U.	c #942A21",
"V.	c #E73733",
"W.	c #E7332B",
"X.	c #E2372B",
"Y.	c #E03D2F",
"Z.	c #681B17",
"`.	c #160203",
" +	c #C64332",
".+	c #E44D3A",
"++	c #EB543C",
"@+	c #E64E36",
"#+	c #E33F2C",
"$+	c #E63E2E",
"%+	c #D52F1D",
"&+	c #B96A67",
"*+	c #CA1E1A",
"=+	c #E52B28",
"-+	c #E32A2C",
";+	c #E22C29",
">+	c #E2332D",
",+	c #EB372D",
"'+	c #B7342F",
")+	c #200000",
"!+	c #C5312C",
"~+	c #E4342F",
"{+	c #E4352C",
"]+	c #E3372F",
"^+	c #E63B2E",
"/+	c #8E2621",
"(+	c #390D09",
"_+	c #DD4937",
":+	c #E94637",
"<+	c #E74436",
"[+	c #E33D2D",
"}+	c #E53B2C",
"|+	c #E53B2D",
"1+	c #D82A1E",
"2+	c #D16461",
"3+	c #BA706E",
"4+	c #C51919",
"5+	c #E62927",
"6+	c #E02B2D",
"7+	c #E72928",
"8+	c #E22B2B",
"9+	c #E22F28",
"0+	c #E5352F",
"a+	c #C3312C",
"b+	c #E73334",
"c+	c #E5332A",
"d+	c #E53527",
"e+	c #E73527",
"f+	c #E3382C",
"g+	c #DC3A31",
"h+	c #D1392E",
"i+	c #E2412E",
"j+	c #E4392B",
"k+	c #E23A2C",
"l+	c #E8392E",
"m+	c #E13A2A",
"n+	c #E6372D",
"o+	c #DD2621",
"p+	c #D86563",
"q+	c #B5191A",
"r+	c #E22B28",
"s+	c #E42A27",
"t+	c #E62928",
"u+	c #E22E28",
"v+	c #E62C29",
"w+	c #E92E2D",
"x+	c #E2322D",
"y+	c #E4322D",
"z+	c #E8312A",
"A+	c #E6332A",
"B+	c #E4362C",
"C+	c #E2382F",
"D+	c #E0362E",
"E+	c #E4352D",
"F+	c #E3382B",
"G+	c #E8352A",
"H+	c #E0382A",
"I+	c #E6362D",
"J+	c #D9251F",
"K+	c #B03237",
"L+	c #DA2928",
"M+	c #DF2C29",
"N+	c #E62B29",
"O+	c #E22E2A",
"P+	c #E52E2A",
"Q+	c #E62E29",
"R+	c #E1332B",
"S+	c #E3312C",
"T+	c #E5302D",
"U+	c #E1332C",
"V+	c #E4342E",
"W+	c #E53628",
"X+	c #E5352B",
"Y+	c #E7362A",
"Z+	c #E2362D",
"`+	c #E13728",
" @	c #E6352C",
".@	c #D6312E",
"+@	c #96292F",
"@@	c #C92223",
"#@	c #DD2B29",
"$@	c #E72A27",
"%@	c #E62B27",
"&@	c #E72A2A",
"*@	c #E62E2A",
"=@	c #E1312A",
"-@	c #E23127",
";@	c #E53228",
">@	c #E5342D",
",@	c #E23730",
"'@	c #E1372D",
")@	c #E43327",
"!@	c #EB312B",
"~@	c #E73528",
"{@	c #E03826",
"]@	c #E4352F",
"^@	c #E4372C",
"/@	c #E43226",
"(@	c #D0403D",
"_@	c #B02123",
":@	c #DE2527",
"<@	c #E62A27",
"[@	c #E52C27",
"}@	c #E52D2A",
"|@	c #E12E2A",
"1@	c #DC312D",
"2@	c #CC312D",
"3@	c #A92822",
"4@	c #8F221E",
"5@	c #88211D",
"6@	c #982921",
"7@	c #BA3331",
"8@	c #D43632",
"9@	c #DE3631",
"0@	c #E33633",
"a@	c #E93328",
"b@	c #E3332E",
"c@	c #DB2E25",
"d@	c #D95758",
"e@	c #972D30",
"f@	c #C72626",
"g@	c #DF2727",
"h@	c #E32C2A",
"i@	c #E32E2F",
"j@	c #BA2E2C",
"k@	c #701A17",
"l@	c #410C0B",
"m@	c #360A07",
"n@	c #3A0E09",
"o@	c #3E0C0B",
"p@	c #3A0B08",
"q@	c #3C0A0A",
"r@	c #541510",
"s@	c #982D20",
"t@	c #DB382C",
"u@	c #E73729",
"v@	c #E73426",
"w@	c #E13431",
"x@	c #D43738",
"y@	c #9B1815",
"z@	c #D3272A",
"A@	c #E02A2D",
"B@	c #9E2220",
"C@	c #5D0E0C",
"D@	c #82211B",
"E@	c #B22D28",
"F@	c #CB312B",
"G@	c #D1352B",
"H@	c #D6342E",
"I@	c #CF3530",
"J@	c #C03326",
"K@	c #992C24",
"L@	c #621717",
"M@	c #771A18",
"N@	c #D2372D",
"O@	c #E23728",
"P@	c #DE302E",
"Q@	c #C54F4F",
"R@	c #9F5756",
"S@	c #A3191F",
"T@	c #C42826",
"U@	c #8D1B15",
"V@	c #C12E2C",
"W@	c #E3302A",
"X@	c #E53229",
"Y@	c #E6322D",
"Z@	c #E3322E",
"`@	c #E6342D",
" #	c #E53530",
".#	c #DC3B2A",
"+#	c #D53735",
"@#	c #9D2526",
"##	c #B83022",
"$#	c #DD342A",
"%#	c #C13D3B",
"&#	c #9D5351",
"*#	c #9F1B1E",
"=#	c #D42B2D",
"-#	c #DC2E29",
";#	c #E03127",
">#	c #E43029",
",#	c #E4332E",
"'#	c #E1372C",
")#	c #E43727",
"!#	c #E8362B",
"~#	c #E13927",
"{#	c #E33A29",
"]#	c #E63A2B",
"^#	c #E34029",
"/#	c #DB3A30",
"(#	c #C1433F",
"_#	c #A12F2E",
":#	c #BC2623",
"<#	c #D72B26",
"[#	c #E33128",
"}#	c #E9332B",
"|#	c #E5372B",
"1#	c #E33C2C",
"2#	c #E24633",
"3#	c #E34435",
"4#	c #DB3F2B",
"5#	c #D24D36",
"6#	c #C85953",
"7#	c #AD2A28",
"8#	c #C33C33",
"9#	c #CB291F",
"0#	c #D82A20",
"a#	c #D83927",
"b#	c #D86242",
"c#	c #DE8572",
"d#	c #D46A5B",
"e#	c #BE6861",
"f#	c #B9685E",
"                    . + @ #                     ",
"              $ % & * = - ; > , '               ",
"          ) ! ~ { ] ^ / ( _ : < [ } |           ",
"        1 2 3 4 5 6 7 8 9 0 a b c d e f         ",
"      g h i j k l m n o p q r s t u v w x       ",
"    y z A B C D E F G H I J K L M N O P Q R     ",
"    S T U V W X Y Z `  ...+.@.#.$.%.&.*.=.-.    ",
"  ;.>.,.'.).!.~.{.].^./.(._.:.<.[.}.|.1.2.3.4.  ",
"  5.6.7.8.9.0.a.b.c.d.e.f.g.h.i.j.k.l.m.n.o.p.  ",
"  q.r.s.t.u.v.w.x.y.z.A.B.C.D.E.F.G.H.I.J.K.L.  ",
"  M.N.O.P.Q.R.S.T.U.V.W.X.Y.Z.`. +.+++@+#+$+%+  ",
"&+*+=+-+;+>+,+'+)+!+~+{+]+^+/+(+_+:+<+[+}+|+1+2+",
"3+4+5+6+7+8+9+0+a+b+c+d+e+f+g+h+i+j+k+l+m+n+o+p+",
"  q+r+s+t+;+u+v+w+x+y+z+c+A+B+C+D+E+F+G+H+I+J+  ",
"  K+L+M+O.N+O+P+Q+R+S+T+U+y+V+W+e+X+Y+Z+`+ @.@  ",
"  +@@@#@$@%@&@*@=@-@;@>@,@'@)@!@~@{@E+]@^@/@(@  ",
"    _@:@<@[@}@|@1@2@3@4@5@6@7@8@9@0@Z+a@b@c@d@  ",
"    e@f@g@h@i@j@k@l@m@n@o@p@q@r@s@t@u@v@w@x@    ",
"      y@z@A@B@C@D@E@F@G@H@I@J@K@L@M@N@O@P@Q@    ",
"      R@S@T@U@V@W@X@Y@Z@`@ #B+.#+#@###$#%#      ",
"        &#*#=#-#;#>#,#'#)#!#~#{#]#^#/#(#        ",
"            _#:#<#[#}#|#j+1#2#3#4#5#6#          ",
"                7#8#9#0#a#b#c#d#                ",
"                      e#f#                      "};
