/* XPM */
static char * yellow_happy_face_24x24_xpm[] = {
"24 24 285 2",
"  	c None",
". 	c #FDDC1C",
"+ 	c #FCDB06",
"@ 	c #FCDA07",
"# 	c #FCDD39",
"$ 	c #FBDE30",
"% 	c #FADE34",
"& 	c #FADD2C",
"* 	c #FADB34",
"= 	c #F9DA30",
"- 	c #F8D92B",
"; 	c #F9D820",
"> 	c #F7D416",
", 	c #EECE1E",
"' 	c #E3C93C",
") 	c #FBDF34",
"! 	c #FCE659",
"~ 	c #FAE14F",
"{ 	c #F5DA41",
"] 	c #F3D430",
"^ 	c #F1D125",
"/ 	c #F0D023",
"( 	c #F1D123",
"_ 	c #F3D323",
": 	c #F5D424",
"< 	c #EBCB1B",
"[ 	c #D7BA1A",
"} 	c #FADD2E",
"| 	c #FCEB80",
"1 	c #F6DC44",
"2 	c #F1D027",
"3 	c #F6D31F",
"4 	c #F9D622",
"5 	c #EFCD21",
"6 	c #F1CF21",
"7 	c #FCD923",
"8 	c #F2D021",
"9 	c #F0CF21",
"0 	c #E9CA1F",
"a 	c #CCB11B",
"b 	c #B29E31",
"c 	c #FADB24",
"d 	c #FCEF9C",
"e 	c #F4D72F",
"f 	c #EFCD1E",
"g 	c #F3D121",
"h 	c #A28E17",
"i 	c #65580E",
"j 	c #F0CE21",
"k 	c #DCBD1E",
"l 	c #4D430A",
"m 	c #D5B91E",
"n 	c #E7C81F",
"o 	c #BCA316",
"p 	c #9C8E3B",
"q 	c #F9D90C",
"r 	c #FDED87",
"s 	c #F5DA38",
"t 	c #EFCC1E",
"u 	c #FBD823",
"v 	c #272305",
"w 	c #252105",
"x 	c #C8AD1C",
"y 	c #AB9518",
"z 	c #060600",
"A 	c #685B0E",
"B 	c #F8D522",
"C 	c #EFCD20",
"D 	c #DCBF1E",
"E 	c #A69114",
"F 	c #FBE454",
"G 	c #F8E256",
"H 	c #EECC18",
"I 	c #F0CD21",
"J 	c #EECF21",
"K 	c #000000",
"L 	c #161402",
"M 	c #B59C19",
"N 	c #907D14",
"O 	c #342F07",
"P 	c #FCDA23",
"Q 	c #EFCF20",
"R 	c #C1A71B",
"S 	c #87791F",
"T 	c #FADD35",
"U 	c #FCE459",
"V 	c #F0D022",
"W 	c #F0CE20",
"X 	c #E9CB20",
"Y 	c #120F02",
"Z 	c #B19818",
"` 	c #EECC20",
" .	c #8C7913",
"..	c #292405",
"+.	c #FDD923",
"@.	c #DEC11D",
"#.	c #908019",
"$.	c #FBDF3C",
"%.	c #F7DC3E",
"&.	c #F0CE22",
"*.	c #171403",
"=.	c #917E14",
"-.	c #383308",
";.	c #EBCA20",
">.	c #A89215",
",.	c #665F33",
"'.	c #FBDE34",
").	c #F4D731",
"!.	c #EFCE21",
"~.	c #EFCE20",
"{.	c #FCD823",
"].	c #312C06",
"^.	c #292505",
"/.	c #CCB01C",
"(.	c #F1CE21",
"_.	c #B19A19",
":.	c #0B0A01",
"<.	c #736510",
"[.	c #F7D422",
"}.	c #F0CD20",
"|.	c #EECD20",
"1.	c #BBA417",
"2.	c #625A27",
"3.	c #F3D32B",
"4.	c #F2CF21",
"5.	c #B69E1A",
"6.	c #7A6A11",
"7.	c #E1C21F",
"8.	c #DDC11F",
"9.	c #C6AD1A",
"0.	c #5E5417",
"a.	c #FAE36A",
"b.	c #F9D91D",
"c.	c #F4D427",
"d.	c #EBCB20",
"e.	c #DDBE1E",
"f.	c #F6D321",
"g.	c #FAD723",
"h.	c #FCD922",
"i.	c #E8C720",
"j.	c #E0C11F",
"k.	c #F4D221",
"l.	c #C9AE1A",
"m.	c #615713",
"n.	c #53524E",
"o.	c #FBD91B",
"p.	c #E7C923",
"q.	c #6B5E0E",
"r.	c #A08F16",
"s.	c #F5D221",
"t.	c #6F6210",
"u.	c #A28D16",
"v.	c #CDB21B",
"w.	c #5A5214",
"x.	c #474744",
"y.	c #FAD819",
"z.	c #F2D223",
"A.	c #B7A119",
"B.	c #8A7913",
"C.	c #F5D521",
"D.	c #53490B",
"E.	c #E8CA20",
"F.	c #B7A017",
"G.	c #4B4616",
"H.	c #4D4E4A",
"I.	c #F7D828",
"J.	c #F7D623",
"K.	c #584E0D",
"L.	c #FDDA23",
"M.	c #B8A01A",
"N.	c #A79217",
"O.	c #9C8A13",
"P.	c #3D3919",
"Q.	c #696866",
"R.	c #EFCE18",
"S.	c #F5D322",
"T.	c #F4D322",
"U.	c #9B8815",
"V.	c #B9A21A",
"W.	c #F4D121",
"X.	c #F1D021",
"Y.	c #766811",
"Z.	c #E5C71F",
"`.	c #DFC11E",
" +	c #756810",
".+	c #3C3B2A",
"++	c #EDCC1D",
"@+	c #EFCF21",
"#+	c #EACB20",
"$+	c #7C6E11",
"%+	c #DFC11F",
"&+	c #AE9819",
"*+	c #A69117",
"=+	c #B39C18",
"-+	c #4D4610",
";+	c #474740",
">+	c #D8BB17",
",+	c #EDCC1F",
"'+	c #CDB21D",
")+	c #776A11",
"!+	c #E6C720",
"~+	c #FFDC23",
"{+	c #A99417",
"]+	c #8A7A14",
"^+	c #EBCB21",
"/+	c #D9BD1D",
"(+	c #6D620F",
"_+	c #403C21",
":+	c #C9B33E",
"<+	c #D0B41C",
"[+	c #DEC01F",
"}+	c #655A0E",
"|+	c #988615",
"1+	c #F8D722",
"2+	c #F8D422",
"3+	c #F8D622",
"4+	c #FDDA22",
"5+	c #DDC01E",
"6+	c #65590E",
"7+	c #9E8A16",
"8+	c #E5C61F",
"9+	c #857612",
"0+	c #4C4710",
"a+	c #353637",
"b+	c #B69E0F",
"c+	c #C5AB1C",
"d+	c #E6C71E",
"e+	c #F7D522",
"f+	c #B8A119",
"g+	c #574D0D",
"h+	c #63570E",
"i+	c #756710",
"j+	c #6E600F",
"k+	c #584D0D",
"l+	c #746611",
"m+	c #E5C720",
"n+	c #E0C31E",
"o+	c #8F7E13",
"p+	c #534D0C",
"q+	c #2F2E2C",
"r+	c #A7910E",
"s+	c #B39D1A",
"t+	c #D4B81C",
"u+	c #F2D121",
"v+	c #FFDB23",
"w+	c #F2D221",
"x+	c #E0C31F",
"y+	c #E6C920",
"z+	c #FBD923",
"A+	c #FAD822",
"B+	c #E8C920",
"C+	c #C9AF1B",
"D+	c #847411",
"E+	c #4D470F",
"F+	c #32312A",
"G+	c #908228",
"H+	c #94831D",
"I+	c #AD9814",
"J+	c #C5AB1A",
"K+	c #D4B81D",
"L+	c #DEC01E",
"M+	c #E1C31F",
"N+	c #D2B61C",
"O+	c #BAA218",
"P+	c #948312",
"Q+	c #645A0F",
"R+	c #403B17",
"S+	c #3B3A34",
"T+	c #716A39",
"U+	c #70661F",
"V+	c #817211",
"W+	c #8A7A10",
"X+	c #887910",
"Y+	c #81730F",
"Z+	c #72650E",
"`+	c #5A5211",
" @	c #403C1A",
".@	c #353428",
"+@	c #40403E",
"@@	c #52514A",
"#@	c #4F4D3E",
"$@	c #454332",
"%@	c #3F3D2E",
"&@	c #3F3D36",
"*@	c #454543",
"                    . + @ #                     ",
"              $ % & * = - ; > , '               ",
"          ) ! ~ { ] ^ / / ( _ : < [             ",
"        } | 1 2 3 4 5 5 5 6 7 8 9 0 a b         ",
"      c d e f g h i 8 j j k l m 5 j n o p       ",
"    q r s t 5 u v w x 6 6 y z A B C 9 D E       ",
"    F G H j I J K L M 6 5 N K O P C j Q R S     ",
"  T U V I W j X K Y Z 6 `  .K ..+.C C 9 @.#.    ",
"  $.%.&.W j I 9 K *.M 6 5 =.K -.7 C j I ;.>.,.  ",
"  '.).!.~.j C {.].^./.(.6 _.:.<.[.C j }.|.1.2.  ",
"  c 3.W j C !.4.5.6.g }.j 7.i 8.C W j j C 9.0.  ",
"a.b.c.d.e.6 I C f.g.5 ~.C 6 h.4.W j i.j.k.l.m.n.",
"  o.p.q.r.s.j j C }.W j j 5 5 C C 4.D t.u.v.w.x.",
"  y.z.A.B.B C j j j j j j j j j j I C.D.E.F.G.H.",
"  I._ J.K.L.C j j j j j j j j j C g M.N.|.O.P.Q.",
"  R.S.T.U.V.W.C 5 j j j j j j j j X.Y.Z.`. +.+  ",
"    ++@+#+$+%+6 C j 5 j 5 j j C W.&+*+Q =+-+;+  ",
"    >+,+9 '+)+!+B C C C C C j ~+{+]+^+/+(+_+    ",
"    :+<+d.9 [+}+|+1+u 2+3+4+5+6+7+@+8+9+0+a+    ",
"      b+c+d+|.e+f+g+h+i+j+k+l+m+8 n+o+p+q+      ",
"        r+s+t+n u+v+w+x+y+z+A+B+C+D+E+F+        ",
"          G+H+I+J+K+L+M+L+N+O+P+Q+R+S+          ",
"              T+U+V+W+X+Y+Z+`+ @.@+@            ",
"                  @@#@$@%@&@+@*@                "};
