/* XPM */
static char * yellow_happy_face_40x40_xpm[] = {
"40 39 607 2",
"  	c None",
". 	c #F9E044",
"+ 	c #FAD700",
"@ 	c #FBDA0C",
"# 	c #FBDA1D",
"$ 	c #FBD922",
"% 	c #FAD921",
"& 	c #FAD820",
"* 	c #FBD920",
"= 	c #FAD81C",
"- 	c #F9D614",
"; 	c #F0CD00",
"> 	c #EDD443",
", 	c #FAE154",
"' 	c #F9DA12",
") 	c #FADA22",
"! 	c #FADF44",
"~ 	c #FBE250",
"{ 	c #FBE24D",
"] 	c #FBE145",
"^ 	c #FBDF3B",
"/ 	c #FBDE34",
"( 	c #FADD2F",
"_ 	c #FADB2B",
": 	c #FADA2A",
"< 	c #FADA2C",
"[ 	c #F9D72A",
"} 	c #EFCC12",
"| 	c #E4C30D",
"1 	c #E5CE57",
"2 	c #FADC0E",
"3 	c #FBDE35",
"4 	c #FCEA7B",
"5 	c #FDEB7C",
"6 	c #FCE355",
"7 	c #F7DA32",
"8 	c #F3D523",
"9 	c #F0D120",
"0 	c #F0CF20",
"a 	c #F0CF21",
"b 	c #F1D122",
"c 	c #F2D322",
"d 	c #F4D523",
"e 	c #F8D724",
"f 	c #FBD823",
"g 	c #F6D423",
"h 	c #E6C720",
"i 	c #D5B713",
"j 	c #CFB733",
"k 	c #FAE046",
"l 	c #FADC23",
"m 	c #FCE97E",
"n 	c #FDEF9B",
"o 	c #F9E250",
"p 	c #F3D31E",
"q 	c #EFCD13",
"r 	c #EECC1F",
"s 	c #EECD22",
"t 	c #EFCD22",
"u 	c #F0CE21",
"v 	c #F0CD21",
"w 	c #EFCD21",
"x 	c #EECC21",
"y 	c #EECE20",
"z 	c #F0D022",
"A 	c #F5D422",
"B 	c #F4D320",
"C 	c #E8C924",
"D 	c #D1B410",
"E 	c #C3A806",
"F 	c #F9DA21",
"G 	c #FBE140",
"H 	c #FEF6C2",
"I 	c #FBE66B",
"J 	c #F2D211",
"K 	c #EECE1F",
"L 	c #F1CF22",
"M 	c #EFCE20",
"N 	c #F0CE20",
"O 	c #F3D022",
"P 	c #EFCF21",
"Q 	c #F1D121",
"R 	c #E9C91F",
"S 	c #D0B420",
"T 	c #B9A00B",
"U 	c #B6A65B",
"V 	c #FADC2B",
"W 	c #FBE458",
"X 	c #FDF5C5",
"Y 	c #F8DD3F",
"Z 	c #EFCC07",
"` 	c #EECD26",
" .	c #F3D021",
"..	c #DFC21F",
"+.	c #C8AF1C",
"@.	c #F6D422",
"#.	c #EFCE21",
"$.	c #B49F19",
"%.	c #F1CF21",
"&.	c #E7C71E",
"*.	c #CAB024",
"=.	c #B0990C",
"-.	c #FADB23",
";.	c #FBE24F",
">.	c #FEF7CD",
",.	c #F6D710",
"'.	c #F4D421",
").	c #171705",
"!.	c #000000",
"~.	c #C2AA1A",
"{.	c #F2D021",
"].	c #EDCB20",
"^.	c #F6D421",
"/.	c #3B3408",
"(.	c #918114",
"_.	c #FCD923",
":.	c #EFCD20",
"<.	c #E2C41E",
"[.	c #C1A81C",
"}.	c #A89105",
"|.	c #948D6B",
"1.	c #FADE32",
"2.	c #FEF6C1",
"3.	c #F7D923",
"4.	c #F4D122",
"5.	c #A89517",
"6.	c #080701",
"7.	c #403909",
"8.	c #EDCC20",
"9.	c #DDC11E",
"0.	c #100F02",
"a.	c #1C1803",
"b.	c #151203",
"c.	c #F3D422",
"d.	c #EDCE20",
"e.	c #DABD1C",
"f.	c #B29C20",
"g.	c #998711",
"h.	c #FBE467",
"i.	c #FADB16",
"j.	c #FDF3AD",
"k.	c #F9E156",
"l.	c #EECE1D",
"m.	c #F6D321",
"n.	c #594D0C",
"o.	c #151303",
"p.	c #191603",
"q.	c #EACC20",
"r.	c #ECCA20",
"s.	c #F8D522",
"t.	c #AA9518",
"u.	c #0D0B01",
"v.	c #CBB21C",
"w.	c #F0CD20",
"x.	c #EACB20",
"y.	c #CAAF1A",
"z.	c #A18D13",
"A.	c #7F7434",
"B.	c #F9D900",
"C.	c #FBE55E",
"D.	c #FDEB86",
"E.	c #F0CE01",
"F.	c #EFCD23",
"G.	c #242006",
"H.	c #060500",
"I.	c #151102",
"J.	c #110F02",
"K.	c #DEBF1F",
"L.	c #EECD21",
"M.	c #938014",
"N.	c #0B0901",
"O.	c #070600",
"P.	c #9F8D16",
"Q.	c #F3D121",
"R.	c #E0C21E",
"S.	c #B29B19",
"T.	c #938104",
"U.	c #6C695B",
"V.	c #FADA20",
"W.	c #FDED8F",
"X.	c #F4D617",
"Y.	c #F3D322",
"Z.	c #242005",
"`.	c #0F0D01",
" +	c #121002",
".+	c #0F0D02",
"++	c #D8BA1E",
"@+	c #FDD923",
"#+	c #827212",
"$+	c #030200",
"%+	c #927F15",
"&+	c #F5D121",
"*+	c #C9AE1A",
"=+	c #988617",
"-+	c #766B1B",
";+	c #FADE43",
">+	c #FAE24E",
",+	c #FCE86F",
"'+	c #EFCF1D",
")+	c #EFCE22",
"!+	c #ECCB20",
"~+	c #F4D322",
"{+	c #252005",
"]+	c #131002",
"^+	c #100E02",
"/+	c #D9BC1E",
"(+	c #FDDA23",
"_+	c #857312",
":+	c #030300",
"<+	c #948014",
"[+	c #DEC01D",
"}+	c #A38F18",
"|+	c #7F7111",
"1+	c #5E5C4B",
"2+	c #F9D80A",
"3+	c #FCE96D",
"4+	c #F7DC3B",
"5+	c #EECD1E",
"6+	c #272207",
"7+	c #020200",
"8+	c #161302",
"9+	c #E0C01F",
"0+	c #EECC20",
"a+	c #FCD723",
"b+	c #988515",
"c+	c #A59417",
"d+	c #E9C920",
"e+	c #B59E18",
"f+	c #847512",
"g+	c #504C36",
"h+	c #FAE158",
"i+	c #FAD918",
"j+	c #FCE661",
"k+	c #F2D21E",
"l+	c #F5D322",
"m+	c #695C0F",
"n+	c #141102",
"o+	c #1B1803",
"p+	c #EECF21",
"q+	c #F7D422",
"r+	c #B49E19",
"s+	c #0F0C02",
"t+	c #DABE1E",
"u+	c #F1CE21",
"v+	c #EDCD20",
"w+	c #C6AC1A",
"x+	c #897913",
"y+	c #5B5216",
"z+	c #676872",
"A+	c #FADB14",
"B+	c #FADB33",
"C+	c #FCE24B",
"D+	c #EFCE19",
"E+	c #BEA81A",
"F+	c #040300",
"G+	c #564E0C",
"H+	c #E9CB20",
"I+	c #161303",
"J+	c #1D1904",
"K+	c #2F2907",
"L+	c #F8D822",
"M+	c #EFCF20",
"N+	c #D3B71C",
"O+	c #8E7F13",
"P+	c #6B6012",
"Q+	c #3B3C42",
"R+	c #F8D600",
"S+	c #FBDD3B",
"T+	c #F9DD38",
"U+	c #EFCD1D",
"V+	c #FAD722",
"W+	c #554B0D",
"X+	c #211D05",
"Y+	c #DEC21E",
"Z+	c #F4D221",
"`+	c #7C6E12",
" @	c #0C0A02",
".@	c #B5A019",
"+@	c #DCBE1D",
"@@	c #958314",
"#@	c #6D6212",
"$@	c #343434",
"%@	c #FADD3B",
"&@	c #F7D92E",
"*@	c #EDCD1F",
"=@	c #F3D221",
"-@	c #EFD021",
";@	c #F2CF21",
">@	c #F5D221",
",@	c #E8CB1F",
"'@	c #F2D122",
")@	c #E1C21E",
"!@	c #998615",
"~@	c #6E6210",
"{@	c #3D3B31",
"]@	c #F9D916",
"^@	c #FADD37",
"/@	c #F6D82A",
"(@	c #EDCC1F",
"_@	c #FBD722",
":@	c #F6D322",
"<@	c #EFCC21",
"[@	c #E2C31E",
"}@	c #998614",
"|@	c #695F0E",
"1@	c #3D3A2C",
"2@	c #FAD816",
"3@	c #FADC34",
"4@	c #F6D728",
"5@	c #F0D020",
"6@	c #D7BD1E",
"7@	c #766810",
"8@	c #6F6110",
"9@	c #F2D121",
"0@	c #877513",
"a@	c #706210",
"b@	c #FAD723",
"c@	c #E1C21F",
"d@	c #958414",
"e@	c #675D0E",
"f@	c #3B3829",
"g@	c #FAD70C",
"h@	c #F9DA30",
"i@	c #F7D727",
"j@	c #E1C41E",
"k@	c #443D09",
"l@	c #2A2606",
"m@	c #9F9216",
"n@	c #C0AC1A",
"o@	c #413C0A",
"p@	c #211E05",
"q@	c #BEA61A",
"r@	c #DEC11E",
"s@	c #8C7C12",
"t@	c #60570F",
"u@	c #33332C",
"v@	c #F8D500",
"w@	c #FAD92C",
"x@	c #F8DA26",
"y@	c #FFE524",
"z@	c #5F560D",
"A@	c #C8AF1B",
"B@	c #F8D922",
"C@	c #0C0A01",
"D@	c #F1D221",
"E@	c #D1B51C",
"F@	c #7E7011",
"G@	c #575012",
"H@	c #2E2F30",
"I@	c #F7D710",
"J@	c #FAD725",
"K@	c #FADA26",
"L@	c #EECF20",
"M@	c #9D8916",
"N@	c #8B7B13",
"O@	c #F1D021",
"P@	c #C7AF1B",
"Q@	c #322C08",
"R@	c #C1A719",
"S@	c #6E620E",
"T@	c #544D15",
"U@	c #2E2E34",
"V@	c #F3DD66",
"W@	c #F5D200",
"X@	c #FBDA26",
"Y@	c #2F2A07",
"Z@	c #FADB22",
"`@	c #312B08",
" #	c #B29C18",
".#	c #EACA20",
"+#	c #A79216",
"@#	c #5E550C",
"##	c #44401E",
"$#	c #35363D",
"%#	c #ECCA0C",
"&#	c #F9D725",
"*#	c #F6D523",
"=#	c #ECCC20",
"-#	c #F7D522",
";#	c #52480B",
">#	c #8E7F14",
",#	c #EECD20",
"'#	c #D0B81D",
")#	c #322D07",
"!#	c #FCDD22",
"~#	c #DDC01D",
"{#	c #877713",
"]#	c #544D0A",
"^#	c #312F22",
"/#	c #373839",
"(#	c #E9D048",
"_#	c #EFCD1B",
":#	c #F9D722",
"<#	c #F0D321",
"[#	c #0E0D02",
"}#	c #E7CB20",
"|#	c #EECB20",
"1#	c #FFDD23",
"2#	c #4F470B",
"3#	c #B59F19",
"4#	c #BCA419",
"5#	c #665C0F",
"6#	c #504A0E",
"7#	c #242526",
"8#	c #656564",
"9#	c #E0C119",
"0#	c #F1D123",
"a#	c #F2D222",
"b#	c #B09C18",
"c#	c #383309",
"d#	c #FFE223",
"e#	c #EECB21",
"f#	c #FBDA22",
"g#	c #62570D",
"h#	c #60540D",
"i#	c #F6D522",
"j#	c #EDCD21",
"k#	c #DFC11E",
"l#	c #8E7D13",
"m#	c #584F09",
"n#	c #423E1C",
"o#	c #333235",
"p#	c #D4B300",
"q#	c #E0C225",
"r#	c #F8D622",
"s#	c #716510",
"t#	c #4D450B",
"u#	c #F6D722",
"v#	c #EDCA21",
"w#	c #978616",
"x#	c #473E0B",
"y#	c #FFDF23",
"z#	c #EBCC20",
"A#	c #B19A18",
"B#	c #645A0E",
"C#	c #534C0E",
"D#	c #28292A",
"E#	c #5F605F",
"F#	c #CCAF00",
"G#	c #E2C320",
"H#	c #FDDB23",
"I#	c #2D2906",
"J#	c #E6C91F",
"K#	c #FBD923",
"L#	c #F5D621",
"M#	c #534A0B",
"N#	c #50470C",
"O#	c #EFD020",
"P#	c #CAB01B",
"Q#	c #786B11",
"R#	c #524B0A",
"S#	c #3A3722",
"T#	c #303134",
"U#	c #D2C16B",
"V#	c #C9AD1A",
"W#	c #E0C11D",
"X#	c #BCA61A",
"Y#	c #080801",
"Z#	c #998915",
"`#	c #F0D221",
" $	c #BDA71A",
".$	c #262206",
"+$	c #867612",
"@$	c #FFDE23",
"#$	c #EDCC21",
"$$	c #D5B81C",
"%$	c #887812",
"&$	c #554E0B",
"*$	c #4C4612",
"=$	c #262729",
"-$	c #4B4B4A",
";$	c #C2A91A",
">$	c #DABD1D",
",$	c #F5D222",
"'$	c #E7CA20",
")$	c #817211",
"!$	c #3C3509",
"~$	c #443C0A",
"{$	c #AD9818",
"]$	c #E8C920",
"^$	c #F8D722",
"/$	c #FAD922",
"($	c #C1AB1A",
"_$	c #50460D",
":$	c #2C2706",
"<$	c #6A5D0E",
"[$	c #D2B81D",
"}$	c #D4B81C",
"|$	c #8F7F13",
"1$	c #584F0D",
"2$	c #504A0F",
"3$	c #292929",
"4$	c #484848",
"5$	c #B19A02",
"6$	c #B9A21C",
"7$	c #D2B51C",
"8$	c #E6C71F",
"9$	c #EDCB21",
"0$	c #BBA31A",
"a$	c #3F390A",
"b$	c #0A0902",
"c$	c #060501",
"d$	c #0F0F04",
"e$	c #040402",
"f$	c #090801",
"g$	c #231E07",
"h$	c #A28E16",
"i$	c #FFDB23",
"j$	c #ECCD20",
"k$	c #CCB01B",
"l$	c #897912",
"m$	c #564F0C",
"n$	c #524B0B",
"o$	c #2C2C29",
"p$	c #333233",
"q$	c #A69114",
"r$	c #AF980F",
"s$	c #C1A81B",
"t$	c #E9CA1F",
"u$	c #F4D121",
"v$	c #EED021",
"w$	c #ECCE20",
"x$	c #F4D422",
"y$	c #E0C11E",
"z$	c #B39B18",
"A$	c #796C11",
"B$	c #514A0F",
"C$	c #2D2D28",
"D$	c #353536",
"E$	c #978728",
"F$	c #9F8C13",
"G$	c #AB9618",
"H$	c #C2A81A",
"I$	c #D8BB1C",
"J$	c #E7C71F",
"K$	c #BFA519",
"L$	c #8F7E13",
"M$	c #635A0E",
"N$	c #524C09",
"O$	c #4C4713",
"P$	c #28282B",
"Q$	c #323232",
"R$	c #867F5A",
"S$	c #8A7A13",
"T$	c #988610",
"U$	c #9F8C18",
"V$	c #C3A91A",
"W$	c #D2B61C",
"X$	c #DDBF1D",
"Y$	c #E3C51F",
"Z$	c #E5C71F",
"`$	c #E6C81F",
" %	c #D6BA1C",
".%	c #C4AA1A",
"+%	c #AA9516",
"@%	c #685E0E",
"#%	c #585008",
"$%	c #524B0E",
"%%	c #393722",
"&%	c #262629",
"*%	c #726932",
"=%	c #7F710C",
"-%	c #847511",
";%	c #887913",
">%	c #907F13",
",%	c #988615",
"'%	c #9F8B15",
")%	c #A28F15",
"!%	c #A18E15",
"~%	c #9C8915",
"{%	c #918013",
"]%	c #827311",
"^%	c #70650F",
"/%	c #544C0A",
"(%	c #504A0D",
"_%	c #433F1D",
":%	c #29282A",
"<%	c #2E2E31",
"[%	c #515150",
"}%	c #5E5B49",
"|%	c #574F21",
"1%	c #695D11",
"2%	c #736710",
"3%	c #716610",
"4%	c #6E620F",
"5%	c #6A600E",
"6%	c #665C0E",
"7%	c #60570E",
"8%	c #5C530F",
"9%	c #534D14",
"0%	c #44401D",
"a%	c #333123",
"b%	c #242426",
"c%	c #333335",
"d%	c #5A5A5B",
"e%	c #484952",
"f%	c #363534",
"g%	c #403D30",
"h%	c #3D3B29",
"i%	c #3C3926",
"j%	c #393726",
"k%	c #363428",
"l%	c #31302B",
"m%	c #2B2C32",
"n%	c #2E3035",
"o%	c #373739",
"p%	c #666564",
"                                                                                ",
"                          . + @ # $ $ % & * = - ; >                             ",
"                      , ' ) ! ~ { ] ^ / ( _ : < [ } | 1                         ",
"                  / 2 3 4 5 6 7 8 9 0 0 a b c d e f g h i j                     ",
"                k l m n o p q r s t u u v w x w y z A B C D E                   ",
"              F G H I J K w w L w u M N M v w x O x M P Q R S T U               ",
"            V W X Y Z ` w  ...+.@.w u u w u u #.$.%.x w y P &.*.=.              ",
"          -.;.>.,.y w N v '.).!.~.{.u w u ].^./.!.(._.:.t #.y <.[.}.|.          ",
"          1.2.3.s t u :.4.5.!.6.7.@.8.u :.w 9.0.a.b.c.u N M #.d.e.f.g.          ",
"      h.i.j.k.l.v u N ].m.n.!.o.p.q.r.u :.s.t.!.u.!.v.%.u u w.#.x.y.z.A.        ",
"      B.C.D.E.F.M N u ].A G.H.I.J.K.L.:.:._.M.N.O.!.P.Q.u u #.v M R.S.T.U.      ",
"      V.W.X.` u N u u r.Y.Z.`. +.+++v :.:.@+#+u.$+!.%+&+u u u #.#.8.*+=+-+      ",
"    ;+>+,+'+)+N u u u !+~+{+`.]+^+/+v :.:.(+_+u.:+!.<+&+u u u u :.P [+}+|+1+    ",
"    2+3+4+5+u M u u u ].@.6+7+8+ +9+0+N :.a+b+6.6.!.c+ .u u u u w #.d+e+f+g+    ",
"  h+i+j+k+w M u u u u 0+l+m+!.n+o+p+r.u :.q+r+!.s+!.t+u+u u u u u w v+w+x+y+z+  ",
"  A+B+C+D+t N u u u u N {.E+!.F+G+@.0+u N ].H+I+J+K+L+w u u u u u w M+N+O+P+Q+  ",
"  R+S+T+U+v u u u u u u w V+W+X+Y+u+u w u 0+Z+`+ @.@s.:.w u u u u v P +@@@#@$@  ",
"  i+%@&@*@u u u u w u w N 0+=@-@;@w N u w u :.>@,@'@0+N u u u u u u #.)@!@~@{@  ",
"  ]@^@/@(@Q._.@+w w :.u w u L.w w u u u u u u :.u+:.u :.:.u w _@@+:@<@[@}@|@1@  ",
"  2@3@4@5@6@7@8@Q v u u u u u u u u u u u u u u u u u u u ].9@0@a@~.b@c@d@e@f@  ",
"  g@h@i@j@k@l@m@#.v u u u u u u u u u u u u u u u u u u u 0+%.n@o@p@q@r@s@t@u@  ",
"  v@w@x@y y@z@A@;@:.u u u u u u u u u u u u u u u u u u u u w B@C@D@d.E@F@G@H@  ",
"  I@J@K@L@s.M@N@_.:.w u u u u u u u u u u u u u u u u u w u O@P@Q@l+8.R@S@T@U@  ",
"  V@W@X@c x R.Y@Z@w u w u u u u u u u u u u u u u u u u u ].@.`@ #{..#+#@###$#  ",
"    %#&#*#=#-#;#>#l+,#u u u u u u u u u u u u u u u u w :.u+'#)#!#P ~#{#]#^#/#  ",
"    (#_#:#-@#.<#[#}#|#M w u u u u u u u u u u u u u w u 0+1#2#3#&+P 4#5#6#7#8#  ",
"      9#0#a#v+s.b#c#d#e#u u u u u u u u u u u u u :.u r.f#g#h#i#j#k#l#m#n#o#    ",
"      p#q#O@p+].r#s#t#u#v#w u u w u u u u N u u M w 8.f#w#x#y#x z#A#B#C#D#E#    ",
"        F#G#P M+<@H#x+I#J#K#].].u u u u N u N 0+].s.L#M#N#-@w O#P#Q#R#S#T#      ",
"        U#V#W#=#M r.V+X#Y#Z#`#@.u <@x w L.w w l+~+ $.$+$@$#$M+$$%$&$*$=$-$      ",
"          4#;$>$z#M+L.,$'$)$!$~${$]$^$) /$P ($_$:$<$[$-#L.5@}$|$1$2$3$4$        ",
"            5$6$7$8$d.#.9$K#:#0$a$b$c$d$e$f$g$h$-@i$x w j$k$l$m$n$o$p$          ",
"              q$r$s$e.t$P ,##.u$r#i#v$q.w$x$V+,$a P P y$z$A$&$B$C$D$            ",
"                E$F$G$H$I$J$w$L@w |#r.r.r.].:.y z#k#K$L$M$N$O$P$Q$              ",
"                  R$S$T$U$A#V$W$X$Y$Z$`$Z$R. %.%+%x+@%#%$%%%&%4$                ",
"                      *%=%-%;%>%,%'%)%!%~%{%]%^%z@/%(%_%:%<%[%                  ",
"                          }%|%1%2%3%4%5%6%7%8%9%0%a%b%c%d%                      ",
"                              e%f%g%h%i%j%k%l%m%n%o%p%                          ",
"                                                                                "};
