/* XPM */
static char * yellow_happy_face_24x24_antialiased_xpm[] = {
"24 24 280 2",
"  	c None",
". 	c #FDDC1C",
"+ 	c #FCDB06",
"@ 	c #FCDA07",
"# 	c #FCDD39",
"$ 	c #FBDE30",
"% 	c #FADE34",
"& 	c #FADD2C",
"* 	c #FADB34",
"= 	c #F9DA30",
"- 	c #F8D92B",
"; 	c #F9D820",
"> 	c #F7D416",
", 	c #EECE1E",
"' 	c #FBDF34",
") 	c #FCE659",
"! 	c #FAE14F",
"~ 	c #F5DA41",
"{ 	c #F3D430",
"] 	c #F1D125",
"^ 	c #F0D023",
"/ 	c #F1D123",
"( 	c #F3D323",
"_ 	c #F5D424",
": 	c #EBCB1B",
"< 	c #D7BA1A",
"[ 	c #FADD2E",
"} 	c #FCEB80",
"| 	c #F6DC44",
"1 	c #F1D027",
"2 	c #F6D31F",
"3 	c #F9D622",
"4 	c #EFCD21",
"5 	c #F1CF21",
"6 	c #FCD923",
"7 	c #F2D021",
"8 	c #F0CF21",
"9 	c #E9CA1F",
"0 	c #CCB11B",
"a 	c #FADB24",
"b 	c #FCEF9C",
"c 	c #F4D72F",
"d 	c #EFCD1E",
"e 	c #F3D121",
"f 	c #A28E17",
"g 	c #65580E",
"h 	c #F0CE21",
"i 	c #DCBD1E",
"j 	c #4D430A",
"k 	c #D5B91E",
"l 	c #E7C81F",
"m 	c #BCA316",
"n 	c #F9D90C",
"o 	c #FDED87",
"p 	c #F5DA38",
"q 	c #EFCC1E",
"r 	c #FBD823",
"s 	c #272305",
"t 	c #252105",
"u 	c #C8AD1C",
"v 	c #AB9518",
"w 	c #060600",
"x 	c #685B0E",
"y 	c #F8D522",
"z 	c #EFCD20",
"A 	c #DCBF1E",
"B 	c #A69114",
"C 	c #FBE454",
"D 	c #F8E256",
"E 	c #EECC18",
"F 	c #F0CD21",
"G 	c #EECF21",
"H 	c #000000",
"I 	c #161402",
"J 	c #B59C19",
"K 	c #907D14",
"L 	c #342F07",
"M 	c #FCDA23",
"N 	c #EFCF20",
"O 	c #C1A71B",
"P 	c #87791F",
"Q 	c #FCE459",
"R 	c #F0D022",
"S 	c #F0CE20",
"T 	c #E9CB20",
"U 	c #120F02",
"V 	c #B19818",
"W 	c #EECC20",
"X 	c #8C7913",
"Y 	c #292405",
"Z 	c #FDD923",
"` 	c #DEC11D",
" .	c #908019",
"..	c #FBDF3C",
"+.	c #F7DC3E",
"@.	c #F0CE22",
"#.	c #171403",
"$.	c #917E14",
"%.	c #383308",
"&.	c #EBCA20",
"*.	c #A89215",
"=.	c #665F33",
"-.	c #FBDE34",
";.	c #F4D731",
">.	c #EFCE21",
",.	c #EFCE20",
"'.	c #FCD823",
").	c #312C06",
"!.	c #292505",
"~.	c #CCB01C",
"{.	c #F1CE21",
"].	c #B19A19",
"^.	c #0B0A01",
"/.	c #736510",
"(.	c #F7D422",
"_.	c #F0CD20",
":.	c #EECD20",
"<.	c #BBA417",
"[.	c #625A27",
"}.	c #F3D32B",
"|.	c #F2CF21",
"1.	c #B69E1A",
"2.	c #7A6A11",
"3.	c #E1C21F",
"4.	c #DDC11F",
"5.	c #C6AD1A",
"6.	c #5E5417",
"7.	c #FAE36A",
"8.	c #F9D91D",
"9.	c #F4D427",
"0.	c #EBCB20",
"a.	c #DDBE1E",
"b.	c #F6D321",
"c.	c #FAD723",
"d.	c #FCD922",
"e.	c #E8C720",
"f.	c #E0C11F",
"g.	c #F4D221",
"h.	c #C9AE1A",
"i.	c #615713",
"j.	c #53524E",
"k.	c #FBD91B",
"l.	c #E7C923",
"m.	c #6B5E0E",
"n.	c #A08F16",
"o.	c #F5D221",
"p.	c #6F6210",
"q.	c #A28D16",
"r.	c #CDB21B",
"s.	c #5A5214",
"t.	c #474744",
"u.	c #FAD819",
"v.	c #F2D223",
"w.	c #B7A119",
"x.	c #8A7913",
"y.	c #F5D521",
"z.	c #53490B",
"A.	c #E8CA20",
"B.	c #B7A017",
"C.	c #4B4616",
"D.	c #4D4E4A",
"E.	c #F7D828",
"F.	c #F7D623",
"G.	c #584E0D",
"H.	c #FDDA23",
"I.	c #B8A01A",
"J.	c #A79217",
"K.	c #9C8A13",
"L.	c #3D3919",
"M.	c #696866",
"N.	c #EFCE18",
"O.	c #F5D322",
"P.	c #F4D322",
"Q.	c #9B8815",
"R.	c #B9A21A",
"S.	c #F4D121",
"T.	c #F1D021",
"U.	c #766811",
"V.	c #E5C71F",
"W.	c #DFC11E",
"X.	c #756810",
"Y.	c #3C3B2A",
"Z.	c #EDCC1D",
"`.	c #EFCF21",
" +	c #EACB20",
".+	c #7C6E11",
"++	c #DFC11F",
"@+	c #AE9819",
"#+	c #A69117",
"$+	c #B39C18",
"%+	c #4D4610",
"&+	c #474740",
"*+	c #D8BB17",
"=+	c #EDCC1F",
"-+	c #CDB21D",
";+	c #776A11",
">+	c #E6C720",
",+	c #FFDC23",
"'+	c #A99417",
")+	c #8A7A14",
"!+	c #EBCB21",
"~+	c #D9BD1D",
"{+	c #6D620F",
"]+	c #403C21",
"^+	c #D0B41C",
"/+	c #DEC01F",
"(+	c #655A0E",
"_+	c #988615",
":+	c #F8D722",
"<+	c #F8D422",
"[+	c #F8D622",
"}+	c #FDDA22",
"|+	c #DDC01E",
"1+	c #65590E",
"2+	c #9E8A16",
"3+	c #E5C61F",
"4+	c #857612",
"5+	c #4C4710",
"6+	c #353637",
"7+	c #B69E0F",
"8+	c #C5AB1C",
"9+	c #E6C71E",
"0+	c #F7D522",
"a+	c #B8A119",
"b+	c #574D0D",
"c+	c #63570E",
"d+	c #756710",
"e+	c #6E600F",
"f+	c #584D0D",
"g+	c #746611",
"h+	c #E5C720",
"i+	c #E0C31E",
"j+	c #8F7E13",
"k+	c #534D0C",
"l+	c #2F2E2C",
"m+	c #A7910E",
"n+	c #B39D1A",
"o+	c #D4B81C",
"p+	c #F2D121",
"q+	c #FFDB23",
"r+	c #F2D221",
"s+	c #E0C31F",
"t+	c #E6C920",
"u+	c #FBD923",
"v+	c #FAD822",
"w+	c #E8C920",
"x+	c #C9AF1B",
"y+	c #847411",
"z+	c #4D470F",
"A+	c #32312A",
"B+	c #908228",
"C+	c #94831D",
"D+	c #AD9814",
"E+	c #C5AB1A",
"F+	c #D4B81D",
"G+	c #DEC01E",
"H+	c #E1C31F",
"I+	c #D2B61C",
"J+	c #BAA218",
"K+	c #948312",
"L+	c #645A0F",
"M+	c #403B17",
"N+	c #3B3A34",
"O+	c #716A39",
"P+	c #70661F",
"Q+	c #817211",
"R+	c #8A7A10",
"S+	c #887910",
"T+	c #81730F",
"U+	c #72650E",
"V+	c #5A5211",
"W+	c #403C1A",
"X+	c #353428",
"Y+	c #40403E",
"Z+	c #52514A",
"`+	c #4F4D3E",
" @	c #454332",
".@	c #3F3D2E",
"+@	c #3F3D36",
"@@	c #454543",
"                    . + @ #                     ",
"              $ % & * = - ; > ,                 ",
"          ' ) ! ~ { ] ^ ^ / ( _ : <             ",
"        [ } | 1 2 3 4 4 4 5 6 7 8 9 0           ",
"      a b c d e f g 7 h h i j k 4 h l m         ",
"    n o p q 4 r s t u 5 5 v w x y z 8 A B       ",
"    C D E h F G H I J 5 4 K H L M z h N O P     ",
"    Q R F S h T H U V 5 W X H Y Z z z 8 `  .    ",
"  ..+.@.S h F 8 H #.J 5 4 $.H %.6 z h F &.*.=.  ",
"  -.;.>.,.h z '.).!.~.{.5 ].^./.(.z h _.:.<.[.  ",
"  a }.S h z >.|.1.2.e _.h 3.g 4.z S h h z 5.6.  ",
"7.8.9.0.a.5 F z b.c.4 ,.z 5 d.|.S h e.f.g.h.i.j.",
"  k.l.m.n.o.h h z _.S h h 4 4 z z |.A p.q.r.s.t.",
"  u.v.w.x.y z h h h h h h h h h h F y.z.A.B.C.D.",
"  E.( F.G.H.z h h h h h h h h h z e I.J.:.K.L.M.",
"  N.O.P.Q.R.S.z 4 h h h h h h h h T.U.V.W.X.Y.  ",
"    Z.`. +.+++5 z h 4 h 4 h h z S.@+#+N $+%+&+  ",
"    *+=+8 -+;+>+y z z z z z h ,+'+)+!+~+{+]+    ",
"      ^+0.8 /+(+_+:+r <+[+}+|+1+2+`.3+4+5+6+    ",
"      7+8+9+:.0+a+b+c+d+e+f+g+h+7 i+j+k+l+      ",
"        m+n+o+l p+q+r+s+t+u+v+w+x+y+z+A+        ",
"          B+C+D+E+F+G+H+G+I+J+K+L+M+N+          ",
"              O+P+Q+R+S+T+U+V+W+X+Y+            ",
"                  Z+`+ @.@+@Y+@@                "};
